<svg width="24" height="24" viewBox="0 0 24 24" fill="none" xmlns="http://www.w3.org/2000/svg">
  <path d="M12 0C5.375 0 0 5.375 0 12s5.375 12 12 12 12-5.375 12-12S18.625 0 12 0zm4.5 10.375c-.125.5-.375.875-.625 1.25-.25.25-.5.625-.625.875-.125.25-.25.625-.25.875 0 .375.25.75.375 1 .125.25.25.625.25.875 0 .375-.125.75-.375 1-.25.375-.625.625-1 .75-.5.125-1 .125-1.5.125-.625 0-1.125-.125-1.75-.25-.5-.125-1-.375-1.5-.625-.375-.25-.75-.5-1.125-.75-.25-.25-.625-.5-.875-.75-.25-.375-.5-.75-.625-1.125-.125-.5-.125-1-.125-1.5 0-.625.125-1.25.375-1.75.25-.625.625-1.125 1.125-1.5.375-.375.875-.625 1.375-.75.5-.125 1-.25 1.5-.25.375 0 .75 0 1.125.125.25.125.625.25.875.5.25.25.375.5.5.75.125.375.25.75.25 1.125 0 .25 0 .5-.125.75 0 .125-.125.375-.125.5 0 .125 0 .25.125.375.125.125.25.25.375.25.125.125.375.125.5.125h.125c.125 0 .25 0 .375-.125.125-.125.25-.25.375-.375.125-.25.25-.5.25-.75.125-.375.125-.75.125-1.125 0-.625-.125-1.25-.375-1.875-.25-.5-.625-1-1-1.5-.5-.375-1-.75-1.625-.875-.625-.25-1.25-.375-1.875-.375-.75 0-1.5.125-2.25.375-.75.25-1.375.625-2 1.125-.625.5-1.125 1.125-1.5 1.75-.375.75-.625 1.5-.625 2.375 0 .875.25 1.75.625 2.5.375.75.875 1.375 1.5 1.875.625.5 1.375.875 2.125 1.125.75.25 1.625.375 2.5.375.75 0 1.5-.125 2.25-.375.625-.25 1.25-.625 1.875-1 .5-.5.875-1 1.125-1.625.25-.75.375-1.5.375-2.25 0-.75-.125-1.375-.375-2z" fill="currentColor"/>
</svg>